<?xml version="1.0" encoding="utf-8"?>
<svg height="1000" preserveAspectRatio="xMidYMid meet" version="1.0" viewBox="0 0 1000 1000" width="1000" xmlns="http://www.w3.org/2000/svg" xmlns:xlink="http://www.w3.org/1999/xlink" zoomAndPan="magnify"><g transform="translate(-1166.67, 0) scale(4.44444)"><defs><clipPath id="7ab05f4809"><path clip-rule="nonzero" d="M 290.363281 19 L 395 19 L 395 183 L 290.363281 183 Z M 290.363281 19 "/></clipPath><clipPath id="d7f43273a7"><path clip-rule="nonzero" d="M 355 42 L 459.863281 42 L 459.863281 206 L 355 206 Z M 355 42 "/></clipPath></defs><g clip-path="url(#7ab05f4809)"><path d="M 394.484375 33.109375 L 394.484375 93.894531 C 394.484375 97.613281 391.457031 100.640625 387.738281 100.640625 L 362.171875 100.640625 C 358.457031 100.640625 355.429688 97.613281 355.429688 93.894531 L 355.429688 64.734375 L 326.832031 64.734375 L 326.832031 182.347656 L 303.851562 169.101562 C 303.367188 168.820312 302.921875 168.535156 302.476562 168.253906 C 302.476562 168.253906 302.4375 168.253906 302.4375 168.214844 C 302.195312 168.050781 301.953125 167.890625 301.710938 167.726562 C 301.46875 167.566406 301.226562 167.40625 301.023438 167.203125 C 300.78125 167.042969 300.578125 166.839844 300.335938 166.679688 C 300.09375 166.515625 299.890625 166.316406 299.691406 166.113281 C 299.488281 165.910156 299.246094 165.75 299.042969 165.546875 C 298.84375 165.34375 298.679688 165.183594 298.476562 164.980469 L 298.398438 164.902344 C 298.195312 164.699219 297.992188 164.496094 297.832031 164.296875 C 297.628906 164.09375 297.429688 163.890625 297.265625 163.6875 C 297.066406 163.488281 296.902344 163.285156 296.703125 163.042969 C 296.539062 162.882812 296.417969 162.71875 296.257812 162.519531 C 296.175781 162.4375 296.09375 162.316406 296.054688 162.234375 C 295.933594 162.113281 295.851562 161.953125 295.730469 161.832031 C 295.691406 161.789062 295.652344 161.710938 295.609375 161.667969 C 295.488281 161.46875 295.328125 161.304688 295.207031 161.105469 C 295.167969 161.0625 295.125 160.984375 295.085938 160.941406 C 294.964844 160.742188 294.84375 160.578125 294.722656 160.378906 C 294.722656 160.335938 294.683594 160.335938 294.683594 160.296875 C 294.5625 160.09375 294.398438 159.851562 294.277344 159.648438 C 294.277344 159.648438 294.238281 159.609375 294.238281 159.570312 C 294.117188 159.328125 293.953125 159.125 293.832031 158.882812 C 293.832031 158.882812 293.832031 158.882812 293.832031 158.84375 C 293.710938 158.601562 293.550781 158.359375 293.429688 158.117188 C 293.308594 157.914062 293.226562 157.671875 293.105469 157.46875 C 293.066406 157.386719 293.027344 157.308594 292.984375 157.226562 C 292.90625 157.023438 292.785156 156.824219 292.703125 156.582031 C 292.582031 156.339844 292.5 156.097656 292.378906 155.855469 C 292.378906 155.8125 292.339844 155.773438 292.339844 155.734375 C 292.257812 155.488281 292.136719 155.246094 292.054688 155.003906 C 291.976562 154.761719 291.894531 154.519531 291.8125 154.277344 C 291.773438 154.199219 291.773438 154.117188 291.734375 154.035156 C 291.652344 153.835938 291.613281 153.59375 291.53125 153.390625 C 291.53125 153.390625 291.53125 153.347656 291.53125 153.347656 C 291.449219 153.105469 291.410156 152.863281 291.328125 152.582031 C 291.328125 152.542969 291.289062 152.5 291.289062 152.460938 C 291.25 152.21875 291.167969 152.015625 291.128906 151.773438 C 291.128906 151.734375 291.085938 151.695312 291.085938 151.613281 C 291.046875 151.410156 291.007812 151.167969 290.964844 150.964844 C 290.925781 150.683594 290.84375 150.441406 290.804688 150.160156 C 290.765625 149.875 290.722656 149.59375 290.683594 149.351562 C 290.644531 149.066406 290.601562 148.785156 290.601562 148.503906 C 290.523438 147.613281 290.480469 146.726562 290.480469 145.796875 L 290.480469 79.195312 C 290.480469 72.003906 293.347656 65.179688 298.316406 60.210938 C 298.921875 59.605469 299.570312 59 300.253906 58.433594 C 300.699219 58.070312 301.183594 57.707031 301.667969 57.34375 C 302.394531 56.820312 303.125 56.332031 303.929688 55.890625 L 361.527344 22.609375 C 369.847656 17.800781 380.105469 17.800781 388.425781 22.609375 C 388.464844 22.648438 388.507812 22.6875 388.585938 22.6875 C 389.597656 23.296875 390.484375 24.023438 391.253906 24.828125 C 391.859375 25.515625 392.425781 26.242188 392.867188 27.011719 C 393.917969 28.867188 394.484375 30.96875 394.484375 33.109375 Z M 394.484375 33.109375 " fill="#5b67ba" fill-opacity="1" fill-rule="nonzero"/></g><g clip-path="url(#d7f43273a7)"><path d="M 459.511719 79.195312 L 459.511719 145.796875 C 459.511719 155.410156 454.382812 164.296875 446.0625 169.101562 L 388.425781 202.382812 C 380.105469 207.1875 369.847656 207.1875 361.527344 202.382812 C 357.769531 200.203125 355.46875 196.203125 355.46875 191.882812 L 355.46875 129.800781 C 355.46875 126.085938 358.496094 123.058594 362.214844 123.058594 L 387.738281 123.058594 C 391.457031 123.058594 394.484375 126.085938 394.484375 129.800781 L 394.484375 160.335938 L 423.121094 160.335938 L 423.121094 42.640625 L 446.101562 55.890625 C 454.382812 60.695312 459.511719 69.582031 459.511719 79.195312 Z M 459.511719 79.195312 " fill="#5d5ff0" fill-opacity="1" fill-rule="nonzero"/></g></g></svg>