<?xml version="1.0" encoding="utf-8"?>
<svg height="300" preserveAspectRatio="xMidYMid meet" version="1.0" viewBox="0 0 750 225" width="1000" xmlns="http://www.w3.org/2000/svg" xmlns:xlink="http://www.w3.org/1999/xlink" zoomAndPan="magnify"><defs><g/><clipPath id="74ca742119"><path clip-rule="nonzero" d="M 7.605469 30 L 100 30 L 100 174 L 7.605469 174 Z M 7.605469 30 "/></clipPath><clipPath id="176d636947"><path clip-rule="nonzero" d="M 64 51 L 155.582031 51 L 155.582031 195 L 64 195 Z M 64 51 "/></clipPath></defs><g clip-path="url(#74ca742119)"><path d="M 99.105469 42.726562 L 99.105469 96.148438 C 99.105469 99.414062 96.441406 102.078125 93.175781 102.078125 L 70.707031 102.078125 C 67.441406 102.078125 64.78125 99.414062 64.78125 96.148438 L 64.78125 70.519531 L 39.648438 70.519531 L 39.648438 173.886719 L 19.453125 162.242188 C 19.027344 161.992188 18.636719 161.746094 18.246094 161.496094 C 18.246094 161.496094 18.210938 161.496094 18.210938 161.460938 C 17.996094 161.320312 17.785156 161.175781 17.570312 161.035156 C 17.359375 160.894531 17.144531 160.75 16.96875 160.574219 C 16.753906 160.433594 16.578125 160.253906 16.363281 160.113281 C 16.152344 159.96875 15.972656 159.792969 15.796875 159.617188 C 15.617188 159.4375 15.40625 159.296875 15.226562 159.117188 C 15.050781 158.941406 14.910156 158.800781 14.730469 158.621094 L 14.660156 158.550781 C 14.480469 158.375 14.304688 158.195312 14.164062 158.019531 C 13.984375 157.839844 13.808594 157.664062 13.664062 157.484375 C 13.488281 157.308594 13.347656 157.132812 13.167969 156.917969 C 13.027344 156.777344 12.921875 156.632812 12.777344 156.457031 C 12.707031 156.386719 12.636719 156.277344 12.601562 156.207031 C 12.496094 156.101562 12.421875 155.960938 12.316406 155.851562 C 12.28125 155.816406 12.246094 155.746094 12.210938 155.710938 C 12.105469 155.535156 11.960938 155.390625 11.855469 155.214844 C 11.820312 155.179688 11.785156 155.109375 11.75 155.070312 C 11.640625 154.894531 11.535156 154.753906 11.429688 154.574219 C 11.429688 154.539062 11.394531 154.539062 11.394531 154.503906 C 11.289062 154.328125 11.144531 154.113281 11.039062 153.9375 C 11.039062 153.9375 11.003906 153.902344 11.003906 153.863281 C 10.898438 153.652344 10.753906 153.476562 10.648438 153.261719 C 10.648438 153.261719 10.648438 153.261719 10.648438 153.226562 C 10.542969 153.011719 10.398438 152.800781 10.292969 152.585938 C 10.1875 152.410156 10.117188 152.195312 10.007812 152.019531 C 9.972656 151.949219 9.9375 151.878906 9.902344 151.804688 C 9.832031 151.628906 9.726562 151.453125 9.65625 151.238281 C 9.546875 151.027344 9.476562 150.8125 9.371094 150.597656 C 9.371094 150.5625 9.335938 150.527344 9.335938 150.492188 C 9.265625 150.28125 9.15625 150.066406 9.085938 149.855469 C 9.015625 149.640625 8.945312 149.429688 8.875 149.214844 C 8.839844 149.144531 8.839844 149.074219 8.804688 149.003906 C 8.730469 148.824219 8.695312 148.613281 8.625 148.433594 C 8.625 148.433594 8.625 148.398438 8.625 148.398438 C 8.554688 148.1875 8.519531 147.972656 8.449219 147.722656 C 8.449219 147.6875 8.414062 147.652344 8.414062 147.617188 C 8.375 147.40625 8.304688 147.226562 8.269531 147.015625 C 8.269531 146.980469 8.234375 146.945312 8.234375 146.871094 C 8.199219 146.695312 8.164062 146.480469 8.128906 146.304688 C 8.09375 146.054688 8.023438 145.84375 7.988281 145.59375 C 7.949219 145.347656 7.914062 145.097656 7.878906 144.882812 C 7.84375 144.636719 7.808594 144.386719 7.808594 144.140625 C 7.738281 143.359375 7.703125 142.578125 7.703125 141.761719 L 7.703125 83.226562 C 7.703125 76.910156 10.222656 70.910156 14.589844 66.542969 C 15.121094 66.011719 15.6875 65.480469 16.292969 64.984375 C 16.683594 64.664062 17.109375 64.34375 17.535156 64.023438 C 18.175781 63.5625 18.8125 63.136719 19.523438 62.746094 L 70.140625 33.496094 C 77.453125 29.273438 86.46875 29.273438 93.78125 33.496094 C 93.816406 33.535156 93.851562 33.570312 93.921875 33.570312 C 94.808594 34.101562 95.589844 34.742188 96.265625 35.449219 C 96.796875 36.054688 97.292969 36.691406 97.683594 37.367188 C 98.609375 39 99.105469 40.84375 99.105469 42.726562 Z M 99.105469 42.726562 " fill="#5b67ba" fill-opacity="1" fill-rule="nonzero"/></g><g clip-path="url(#176d636947)"><path d="M 156.253906 83.226562 L 156.253906 141.761719 C 156.253906 150.210938 151.746094 158.019531 144.433594 162.242188 L 93.78125 191.492188 C 86.46875 195.714844 77.453125 195.714844 70.140625 191.492188 C 66.839844 189.574219 64.816406 186.058594 64.816406 182.261719 L 64.816406 127.703125 C 64.816406 124.4375 67.476562 121.777344 70.742188 121.777344 L 93.175781 121.777344 C 96.441406 121.777344 99.105469 124.4375 99.105469 127.703125 L 99.105469 154.539062 L 124.273438 154.539062 L 124.273438 51.105469 L 144.46875 62.746094 C 151.746094 66.972656 156.253906 74.78125 156.253906 83.226562 Z M 156.253906 83.226562 " fill="#5d5ff0" fill-opacity="1" fill-rule="nonzero"/></g><g fill="#5d5ff0" fill-opacity="1"><g transform="translate(176.566692, 148.257697)"><g><path d="M 52.890625 -47.078125 L 52.890625 -75.796875 L 68.71875 -75.796875 L 68.71875 0 L 52.890625 0 L 52.890625 -33.984375 L 23.328125 -33.984375 L 23.328125 0 L 7.5 0 L 7.5 -75.796875 L 23.328125 -75.796875 L 23.328125 -47.078125 Z M 52.890625 -47.078125 "/></g></g></g><g fill="#5d5ff0" fill-opacity="1"><g transform="translate(251.722857, 148.257697)"><g><path d="M 29.765625 -14.78125 L 41.28125 -56.15625 L 56.890625 -56.15625 L 37.15625 0.734375 C 35.257812 6.085938 33.5 10.523438 31.875 14.046875 C 30.894531 16.078125 29.820312 17.707031 28.65625 18.9375 C 27.5 20.175781 25.953125 21.09375 24.015625 21.6875 C 22.078125 22.289062 19.488281 22.59375 16.25 22.59375 C 15.0625 22.59375 12.707031 22.519531 9.1875 22.375 L 9.1875 10.5625 L 12.875 10.765625 C 15.757812 10.765625 17.800781 10.148438 19 8.921875 C 20.195312 7.691406 21.113281 5.492188 21.75 2.328125 L 1.0625 -56.15625 L 17.515625 -56.15625 L 29.5625 -14.78125 Z M 29.765625 -14.78125 "/></g></g></g><g fill="#5d5ff0" fill-opacity="1"><g transform="translate(309.356659, 148.257697)"><g><path d="M 61.015625 -28.71875 C 61.015625 -22.875 60.082031 -17.664062 58.21875 -13.09375 C 56.351562 -8.519531 53.644531 -4.945312 50.09375 -2.375 C 46.539062 0.195312 42.300781 1.484375 37.375 1.484375 C 29.976562 1.484375 24.695312 -1.398438 21.53125 -7.171875 L 21.328125 -7.171875 L 21.328125 21.84375 L 6.546875 21.84375 L 6.546875 -56.15625 L 20.6875 -56.15625 L 20.6875 -48.03125 L 20.90625 -48.03125 C 24.632812 -54.4375 30.226562 -57.640625 37.6875 -57.640625 C 42.1875 -57.640625 46.210938 -56.457031 49.765625 -54.09375 C 53.328125 -51.738281 56.09375 -48.378906 58.0625 -44.015625 C 60.03125 -39.648438 61.015625 -34.550781 61.015625 -28.71875 Z M 33.671875 -10.65625 C 37.546875 -10.65625 40.535156 -12.289062 42.640625 -15.5625 C 44.753906 -18.84375 45.8125 -22.910156 45.8125 -27.765625 C 45.8125 -33.109375 44.738281 -37.289062 42.59375 -40.3125 C 40.445312 -43.34375 37.296875 -44.859375 33.140625 -44.859375 C 29.128906 -44.859375 26.050781 -43.328125 23.90625 -40.265625 C 21.757812 -37.210938 20.6875 -32.726562 20.6875 -26.8125 C 20.6875 -21.75 21.847656 -17.789062 24.171875 -14.9375 C 26.492188 -12.082031 29.660156 -10.65625 33.671875 -10.65625 Z M 33.671875 -10.65625 "/></g></g></g><g fill="#5d5ff0" fill-opacity="1"><g transform="translate(372.79605, 148.257697)"><g><path d="M 39.375 -57.421875 L 39.375 -42.4375 C 38.25 -42.570312 36.910156 -42.640625 35.359375 -42.640625 C 26.140625 -42.640625 21.53125 -38.28125 21.53125 -29.5625 L 21.53125 0 L 6.75 0 L 6.75 -56.15625 L 20.90625 -56.15625 L 20.90625 -46.453125 L 21.109375 -46.453125 C 23.222656 -50.597656 25.472656 -53.5 27.859375 -55.15625 C 30.253906 -56.8125 33.144531 -57.640625 36.53125 -57.640625 C 36.875 -57.640625 37.820312 -57.566406 39.375 -57.421875 Z M 39.375 -57.421875 "/></g></g></g><g fill="#5d5ff0" fill-opacity="1"><g transform="translate(412.80189, 148.257697)"><g><path d="M 43.703125 0 L 43.703125 -7.078125 L 43.484375 -7.078125 C 41.734375 -4.117188 39.429688 -1.953125 36.578125 -0.578125 C 33.722656 0.796875 30.609375 1.484375 27.234375 1.484375 C 22.378906 1.484375 18.175781 0.21875 14.625 -2.3125 C 11.070312 -4.851562 8.34375 -8.390625 6.4375 -12.921875 C 4.539062 -17.460938 3.59375 -22.726562 3.59375 -28.71875 C 3.59375 -34.550781 4.578125 -39.648438 6.546875 -44.015625 C 8.515625 -48.378906 11.273438 -51.738281 14.828125 -54.09375 C 18.378906 -56.457031 22.410156 -57.640625 26.921875 -57.640625 C 30.503906 -57.640625 33.664062 -56.878906 36.40625 -55.359375 C 39.15625 -53.847656 41.410156 -51.6875 43.171875 -48.875 L 43.390625 -48.875 L 43.390625 -75.796875 L 58.171875 -75.796875 L 58.171875 0 Z M 44.015625 -26.8125 C 44.015625 -32.582031 42.941406 -37.03125 40.796875 -40.15625 C 38.648438 -43.289062 35.46875 -44.859375 31.25 -44.859375 C 27.300781 -44.859375 24.238281 -43.363281 22.0625 -40.375 C 19.882812 -37.382812 18.796875 -33.179688 18.796875 -27.765625 C 18.796875 -22.765625 19.882812 -18.660156 22.0625 -15.453125 C 24.238281 -12.253906 27.195312 -10.65625 30.9375 -10.65625 C 34.945312 -10.65625 38.128906 -12.113281 40.484375 -15.03125 C 42.835938 -17.957031 44.015625 -21.882812 44.015625 -26.8125 Z M 44.015625 -26.8125 "/></g></g></g><g fill="#5d5ff0" fill-opacity="1"><g transform="translate(476.241266, 148.257697)"><g><path d="M 55.625 -2.21875 L 55.625 0 L 39.6875 0 C 38.84375 -2.457031 38.382812 -4.675781 38.3125 -6.65625 C 35.644531 -3.769531 32.867188 -1.691406 29.984375 -0.421875 C 27.097656 0.847656 23.820312 1.484375 20.15625 1.484375 C 15.019531 1.484375 10.882812 0.00390625 7.75 -2.953125 C 4.625 -5.910156 3.0625 -9.890625 3.0625 -14.890625 C 3.0625 -19.597656 4.34375 -23.519531 6.90625 -26.65625 C 9.476562 -29.789062 14.070312 -31.921875 20.6875 -33.046875 L 31.25 -34.625 C 33.925781 -35.050781 35.703125 -35.578125 36.578125 -36.203125 C 37.453125 -36.835938 37.890625 -37.894531 37.890625 -39.375 C 37.890625 -41.488281 37.132812 -43.085938 35.625 -44.171875 C 34.113281 -45.265625 31.632812 -45.8125 28.1875 -45.8125 C 22.625 -45.8125 19.597656 -43.207031 19.109375 -38 L 4.859375 -38 C 5.421875 -44.40625 7.582031 -49.28125 11.34375 -52.625 C 15.113281 -55.96875 21.1875 -57.640625 29.5625 -57.640625 C 36.738281 -57.640625 42.332031 -56.226562 46.34375 -53.40625 C 50.351562 -50.59375 52.359375 -46.722656 52.359375 -41.796875 L 52.359375 -10.453125 C 52.359375 -7.847656 52.617188 -5.925781 53.140625 -4.6875 C 53.671875 -3.457031 54.5 -2.632812 55.625 -2.21875 Z M 37.890625 -20.375 L 37.890625 -27.34375 C 36.628906 -26.5625 35.257812 -25.941406 33.78125 -25.484375 C 32.300781 -25.035156 30.15625 -24.597656 27.34375 -24.171875 C 24.175781 -23.753906 21.800781 -22.894531 20.21875 -21.59375 C 18.632812 -20.289062 17.84375 -18.367188 17.84375 -15.828125 C 17.84375 -13.785156 18.472656 -12.148438 19.734375 -10.921875 C 21.003906 -9.691406 22.660156 -9.078125 24.703125 -9.078125 C 26.878906 -9.078125 28.988281 -9.550781 31.03125 -10.5 C 33.070312 -11.445312 34.722656 -12.78125 35.984375 -14.5 C 37.253906 -16.226562 37.890625 -18.1875 37.890625 -20.375 Z M 37.890625 -20.375 "/></g></g></g><g fill="#5d5ff0" fill-opacity="1"><g transform="translate(533.875083, 148.257697)"><g><path d="M 32.625 -56.15625 L 32.625 -45.609375 L 23.4375 -45.609375 L 23.4375 -14.25 C 23.4375 -12.769531 23.835938 -11.785156 24.640625 -11.296875 C 25.453125 -10.804688 27.054688 -10.5625 29.453125 -10.5625 C 30.015625 -10.5625 31.070312 -10.628906 32.625 -10.765625 L 32.625 0.421875 C 28.675781 0.566406 26.035156 0.640625 24.703125 0.640625 C 20.203125 0.640625 16.789062 0.164062 14.46875 -0.78125 C 12.144531 -1.738281 10.59375 -3.078125 9.8125 -4.796875 C 9.039062 -6.523438 8.65625 -8.796875 8.65625 -11.609375 L 8.65625 -45.609375 L 1.0625 -45.609375 L 1.0625 -56.15625 L 8.65625 -56.15625 L 8.65625 -71.359375 L 23.4375 -71.359375 L 23.4375 -56.15625 Z M 32.625 -56.15625 "/></g></g></g><g fill="#5d5ff0" fill-opacity="1"><g transform="translate(567.969777, 148.257697)"><g><path d="M 55.625 -2.21875 L 55.625 0 L 39.6875 0 C 38.84375 -2.457031 38.382812 -4.675781 38.3125 -6.65625 C 35.644531 -3.769531 32.867188 -1.691406 29.984375 -0.421875 C 27.097656 0.847656 23.820312 1.484375 20.15625 1.484375 C 15.019531 1.484375 10.882812 0.00390625 7.75 -2.953125 C 4.625 -5.910156 3.0625 -9.890625 3.0625 -14.890625 C 3.0625 -19.597656 4.34375 -23.519531 6.90625 -26.65625 C 9.476562 -29.789062 14.070312 -31.921875 20.6875 -33.046875 L 31.25 -34.625 C 33.925781 -35.050781 35.703125 -35.578125 36.578125 -36.203125 C 37.453125 -36.835938 37.890625 -37.894531 37.890625 -39.375 C 37.890625 -41.488281 37.132812 -43.085938 35.625 -44.171875 C 34.113281 -45.265625 31.632812 -45.8125 28.1875 -45.8125 C 22.625 -45.8125 19.597656 -43.207031 19.109375 -38 L 4.859375 -38 C 5.421875 -44.40625 7.582031 -49.28125 11.34375 -52.625 C 15.113281 -55.96875 21.1875 -57.640625 29.5625 -57.640625 C 36.738281 -57.640625 42.332031 -56.226562 46.34375 -53.40625 C 50.351562 -50.59375 52.359375 -46.722656 52.359375 -41.796875 L 52.359375 -10.453125 C 52.359375 -7.847656 52.617188 -5.925781 53.140625 -4.6875 C 53.671875 -3.457031 54.5 -2.632812 55.625 -2.21875 Z M 37.890625 -20.375 L 37.890625 -27.34375 C 36.628906 -26.5625 35.257812 -25.941406 33.78125 -25.484375 C 32.300781 -25.035156 30.15625 -24.597656 27.34375 -24.171875 C 24.175781 -23.753906 21.800781 -22.894531 20.21875 -21.59375 C 18.632812 -20.289062 17.84375 -18.367188 17.84375 -15.828125 C 17.84375 -13.785156 18.472656 -12.148438 19.734375 -10.921875 C 21.003906 -9.691406 22.660156 -9.078125 24.703125 -9.078125 C 26.878906 -9.078125 28.988281 -9.550781 31.03125 -10.5 C 33.070312 -11.445312 34.722656 -12.78125 35.984375 -14.5 C 37.253906 -16.226562 37.890625 -18.1875 37.890625 -20.375 Z M 37.890625 -20.375 "/></g></g></g><g fill="#5d5ff0" fill-opacity="1"><g transform="translate(625.603594, 148.257697)"><g><path d="M 6.75 0 L 6.75 -15.40625 L 22.59375 -15.40625 L 22.59375 0 Z M 6.75 0 "/></g></g></g><g fill="#5d5ff0" fill-opacity="1"><g transform="translate(653.892644, 148.257697)"><g><path d="M 55.625 -2.21875 L 55.625 0 L 39.6875 0 C 38.84375 -2.457031 38.382812 -4.675781 38.3125 -6.65625 C 35.644531 -3.769531 32.867188 -1.691406 29.984375 -0.421875 C 27.097656 0.847656 23.820312 1.484375 20.15625 1.484375 C 15.019531 1.484375 10.882812 0.00390625 7.75 -2.953125 C 4.625 -5.910156 3.0625 -9.890625 3.0625 -14.890625 C 3.0625 -19.597656 4.34375 -23.519531 6.90625 -26.65625 C 9.476562 -29.789062 14.070312 -31.921875 20.6875 -33.046875 L 31.25 -34.625 C 33.925781 -35.050781 35.703125 -35.578125 36.578125 -36.203125 C 37.453125 -36.835938 37.890625 -37.894531 37.890625 -39.375 C 37.890625 -41.488281 37.132812 -43.085938 35.625 -44.171875 C 34.113281 -45.265625 31.632812 -45.8125 28.1875 -45.8125 C 22.625 -45.8125 19.597656 -43.207031 19.109375 -38 L 4.859375 -38 C 5.421875 -44.40625 7.582031 -49.28125 11.34375 -52.625 C 15.113281 -55.96875 21.1875 -57.640625 29.5625 -57.640625 C 36.738281 -57.640625 42.332031 -56.226562 46.34375 -53.40625 C 50.351562 -50.59375 52.359375 -46.722656 52.359375 -41.796875 L 52.359375 -10.453125 C 52.359375 -7.847656 52.617188 -5.925781 53.140625 -4.6875 C 53.671875 -3.457031 54.5 -2.632812 55.625 -2.21875 Z M 37.890625 -20.375 L 37.890625 -27.34375 C 36.628906 -26.5625 35.257812 -25.941406 33.78125 -25.484375 C 32.300781 -25.035156 30.15625 -24.597656 27.34375 -24.171875 C 24.175781 -23.753906 21.800781 -22.894531 20.21875 -21.59375 C 18.632812 -20.289062 17.84375 -18.367188 17.84375 -15.828125 C 17.84375 -13.785156 18.472656 -12.148438 19.734375 -10.921875 C 21.003906 -9.691406 22.660156 -9.078125 24.703125 -9.078125 C 26.878906 -9.078125 28.988281 -9.550781 31.03125 -10.5 C 33.070312 -11.445312 34.722656 -12.78125 35.984375 -14.5 C 37.253906 -16.226562 37.890625 -18.1875 37.890625 -20.375 Z M 37.890625 -20.375 "/></g></g></g><g fill="#5d5ff0" fill-opacity="1"><g transform="translate(711.526461, 148.257697)"><g><path d="M 7.28125 -62.8125 L 7.28125 -76.53125 L 22.0625 -76.53125 L 22.0625 -62.8125 Z M 7.28125 0 L 7.28125 -56.15625 L 22.0625 -56.15625 L 22.0625 0 Z M 7.28125 0 "/></g></g></g></svg>